# xmcd
#
# Track frame offsets: 
#        182
#        12380
#        25047
#        38025
#        49125
#        61342
#        73450
#        85217
#        96557
#        108852
#        120160
#        131200
#        143595
#        157045
#        169010
#        181850
#
# Disc length: 2571 seconds
#
# Revision: 0
# Processed by: cddbd v1.5.2PL0 Copyright (c) Steve Scherf et al.
# Submitted via: ExactAudioCopyFreeDBPlugin 1.0
#
DISCID=d70a0910
DTITLE=Various Artist - ABCO Records Chicago Presents (The ABCO Recor
DTITLE=ds Chicago Blues Story)
DYEAR=1998
DGENRE=Blues
TTITLE0=Morris Pejo - Screaming and Crying
TTITLE1=Morris Pejo - May-Be Blues
TTITLE2=Herby Joe - Smokestack Lightnin'
TTITLE3=Herby Joe - Dreamed
TTITLE4=Louis Myers and The Aces - Just Whaling
TTITLE5=Louis Myers and The Aces - Bluesy
TTITLE6=Arbee Stidham - Meet Me the Half Way
TTITLE7=Arbee Stidham - I'll Always Remember You
TTITLE8=Arbee Stidham - When I Find My Baby
TTITLE9=Arbee Stidham - Please Let it Be Me
TTITLE10=Freddie Hall and The Aces - Can't This Be Mine
TTITLE11=Freddie Hall and The Aces - Playin' Hard to Get
TTITLE12=Zona Sago's - Jivin' at Random
TTITLE13=Zona Sago's - Short Order
TTITLE14=The Ripchords - I Love You the Most
TTITLE15=The Ripchords - Let's Do the Razzle Dazzle
EXTD=
EXTT0=
EXTT1=
EXTT2=
EXTT3=
EXTT4=
EXTT5=
EXTT6=
EXTT7=
EXTT8=
EXTT9=
EXTT10=
EXTT11=
EXTT12=
EXTT13=
EXTT14=
EXTT15=
PLAYORDER=
